<svg width="16" height="40" viewBox="0 0 16 40" fill="none" xmlns="http://www.w3.org/2000/svg">
<g id="arrow-search">
<path id="Vector" fill-rule="evenodd" clip-rule="evenodd" d="M8.73703 14.0361C8.38555 13.6846 7.81571 13.6846 7.46423 14.0361C7.11276 14.3875 7.11276 14.9574 7.46423 15.3089L11.1557 19.0003H2.87278C2.37572 19.0003 1.97278 19.4033 1.97278 19.9003C1.97278 20.3974 2.37572 20.8003 2.87278 20.8003H11.1557L7.46423 24.4918C7.11276 24.8432 7.11276 25.4131 7.46423 25.7646C7.8157 26.116 8.38555 26.116 8.73702 25.7646L13.9639 20.5377C13.9675 20.5341 13.9711 20.5305 13.9747 20.5268C14.1312 20.3654 14.2278 20.1455 14.2285 19.903V19.9003V19.8948C14.2278 19.7751 14.2037 19.661 14.1606 19.5567C14.1167 19.4502 14.0515 19.3505 13.9649 19.2639L8.73703 14.0361Z" fill="#272727"/>
</g>
</svg>
