<svg width="16" height="41" viewBox="0 0 16 41" fill="none" xmlns="http://www.w3.org/2000/svg">
<g id="arrow-search">
<path id="Vector" fill-rule="evenodd" clip-rule="evenodd" d="M7.26293 26.7127C7.61441 27.0642 8.18425 27.0642 8.53573 26.7127C8.8872 26.3612 8.8872 25.7914 8.53573 25.4399L4.8443 21.7485L13.1272 21.7485C13.6242 21.7485 14.0272 21.3455 14.0272 20.8485C14.0272 20.3514 13.6242 19.9485 13.1272 19.9485L4.8443 19.9485L8.53573 16.257C8.8872 15.9056 8.8872 15.3357 8.53573 14.9842C8.18426 14.6328 7.61441 14.6328 7.26294 14.9842L2.0361 20.2111C2.0325 20.2147 2.0289 20.2183 2.0253 20.222C1.8688 20.3834 1.7722 20.6033 1.7715 20.8458V20.8485V20.854C1.7722 20.9736 1.7963 21.0878 1.8394 21.192C1.8833 21.2985 1.9485 21.3983 2.0351 21.4849L7.26293 26.7127Z" fill="#272727"/>
</g>
</svg>
