<svg width="284" height="54" viewBox="0 0 284 54" fill="none" xmlns="http://www.w3.org/2000/svg">
<path d="M12.1354 21.924C11.8004 22.3823 11.5013 22.8979 11.2382 23.4706C10.975 24.0433 10.7836 24.5864 10.6639 25.0998C10.6879 25.0979 10.7118 25.096 10.7357 25.0941C11.3817 25.2113 11.8842 25.4958 12.2431 25.9475C12.6019 26.3753 12.7814 26.8891 12.7814 27.4891C12.7814 27.9451 12.6737 28.3976 12.4584 28.8466C12.2431 29.2715 11.932 29.632 11.5253 29.928C11.1185 30.224 10.652 30.3927 10.1256 30.4342C9.35997 30.4944 8.702 30.3062 8.1517 29.8695C7.62533 29.4069 7.36214 28.7436 7.36214 27.8796C7.36214 26.9916 7.61337 25.9639 8.11581 24.7963C8.64219 23.6269 9.2523 22.7269 9.94615 22.0963L12.1354 21.924ZM4.84991 22.4974C4.51495 22.9557 4.21587 23.4713 3.95269 24.044C3.6895 24.6167 3.49809 25.1598 3.37846 25.6732C3.40239 25.6713 3.42631 25.6694 3.45024 25.6675C4.09624 25.7847 4.59869 26.0691 4.95758 26.5209C5.31647 26.9486 5.49591 27.4625 5.49591 28.0625C5.49591 28.5185 5.38825 28.971 5.17291 29.4199C4.95758 29.8449 4.64654 30.2054 4.2398 30.5014C3.83306 30.7974 3.3665 30.9661 2.84013 31.0075C2.07449 31.0678 1.41653 30.8796 0.866229 30.4429C0.339857 29.9803 0.0766708 29.317 0.0766708 28.453C0.0766708 27.565 0.327894 26.5373 0.83034 25.3697C1.35671 24.2003 1.96683 23.3003 2.66068 22.6697L4.84991 22.4974ZM13.9262 43.563L17.1562 43.3088C17.7544 40.6458 18.2568 38.1342 18.6635 35.7742C19.0703 33.3902 19.3813 30.9057 19.5967 28.3208C19.6445 28.077 19.6684 27.8351 19.6684 27.5951C19.6924 27.3532 19.7043 27.1123 19.7043 26.8723C19.7522 26.2445 19.7761 25.7746 19.7761 25.4626L16.3308 25.7338V21.9538L40.2687 20.0698V23.8498L36.7875 24.1238V41.7638L40.7353 41.4531V50.7411L36.9669 51.0377V45.6017C36.9669 45.5777 36.955 45.5666 36.9311 45.5685C36.9311 45.5685 36.9311 45.5565 36.9311 45.5325C36.9311 45.5325 36.9191 45.5335 36.8952 45.5353L17.7663 47.0408C17.7424 47.0427 17.7304 47.0436 17.7304 47.0436C17.7304 47.0676 17.7185 47.0806 17.6945 47.0825C17.6945 47.0825 17.6945 47.0945 17.6945 47.1185V52.5545L13.9262 52.851V43.563ZM32.8756 42.1437V24.3597L23.7239 25.0799C23.7239 25.1759 23.7119 25.2729 23.688 25.3708C23.688 25.4668 23.688 25.5628 23.688 25.6588C23.4727 28.7957 23.1377 31.7861 22.6831 34.6299C22.2285 37.4736 21.6782 40.2889 21.0322 43.0758L32.8756 42.1437ZM52.1087 44.698C50.2664 44.843 48.6036 44.5779 47.1202 43.9026C45.6607 43.2015 44.5122 42.1759 43.6748 40.8258C42.8374 39.4517 42.4187 37.8766 42.4187 36.1006C42.4187 34.3246 42.8374 32.6957 43.6748 31.2138C44.5122 29.7079 45.6607 28.5015 47.1202 27.5946C48.6036 26.6619 50.2664 26.123 52.1087 25.978C53.9511 25.833 55.6019 26.1111 57.0614 26.8122C58.5448 27.4875 59.7053 28.5122 60.5427 29.8862C61.3801 31.2363 61.7988 32.7994 61.7988 34.5754C61.7988 36.3514 61.3801 37.9923 60.5427 39.4982C59.7053 40.9802 58.5448 42.1875 57.0614 43.1202C55.6019 44.0271 53.9511 44.553 52.1087 44.698ZM52.1087 41.278C53.2572 41.1876 54.286 40.8547 55.1952 40.2791C56.1283 39.6777 56.8461 38.9132 57.3485 37.9856C57.8749 37.0322 58.1381 35.9915 58.1381 34.8635C58.1381 33.7355 57.8749 32.7482 57.3485 31.9016C56.8461 31.0292 56.1283 30.3777 55.1952 29.9471C54.286 29.4907 53.2572 29.3076 52.1087 29.398C50.9603 29.4884 49.9195 29.8343 48.9864 30.4357C48.0772 31.0113 47.3594 31.7758 46.8331 32.7292C46.3306 33.6568 46.0794 34.6845 46.0794 35.8125C46.0794 36.9405 46.3306 37.9408 46.8331 38.8132C47.3594 39.6598 48.0772 40.3113 48.9864 40.7677C49.9195 41.1983 50.9603 41.3684 52.1087 41.278ZM78.5357 40.5662C78.0572 41.1078 77.4231 41.6017 76.6336 42.0479C76.1311 42.3274 75.5928 42.5498 75.0186 42.715C74.4443 42.8802 73.8342 42.9882 73.1882 43.039C71.5373 43.1689 70.03 42.8796 68.6662 42.1709C67.3263 41.4604 66.2616 40.4282 65.4721 39.0743C64.7064 37.6946 64.3236 36.1287 64.3236 34.3767C64.3236 32.6247 64.7064 31.0106 65.4721 29.5343C66.2616 28.0322 67.3263 26.8204 68.6662 25.8989C70.03 24.9756 71.5373 24.4489 73.1882 24.319C74.3367 24.2286 75.3894 24.3498 76.3465 24.6825C77.0642 24.938 77.6983 25.2961 78.2486 25.7568V23.2008L81.4427 22.9494V30.9774L78.0332 31.2457V30.3097C77.9615 29.7634 77.6983 29.2801 77.2437 28.8598C76.813 28.4377 76.2627 28.1211 75.5928 27.9098C74.9468 27.6726 74.2529 27.5832 73.5112 27.6416C72.4824 27.7226 71.5373 28.0609 70.676 28.6567C69.8386 29.2506 69.1687 30.0234 68.6662 30.9749C68.1877 31.9246 67.9484 32.9634 67.9484 34.0914C67.9484 35.2194 68.1877 36.2206 68.6662 37.0949C69.1687 37.9674 69.8386 38.6346 70.676 39.0967C71.5373 39.5329 72.4824 39.7106 73.5112 39.6296C74.3247 39.5656 75.0784 39.3623 75.7722 39.0197C76.49 38.6752 77.0762 38.233 77.5308 37.6933C77.9854 37.1535 78.2486 36.5688 78.3204 35.9391V34.8951L81.6939 34.6296V42.4056L78.5357 42.6542V40.5662ZM88.3746 38.0638L92.3224 37.7531V26.5931L87.9798 26.9349C87.9559 26.9368 87.9439 26.9497 87.9439 26.9737C87.9439 26.9737 87.932 26.9747 87.9081 26.9765C87.9081 26.9765 87.9081 26.9885 87.9081 27.0125V30.8645L84.4986 31.1329V22.2409L87.7645 21.9838V23.5318L100.218 22.5517V21.0037L103.52 20.7439V29.6359L100.11 29.9042V26.0522C100.11 26.0282 100.098 26.0171 100.074 26.019C100.074 25.995 100.062 25.984 100.039 25.9859L95.7319 26.3248V37.4848L99.6797 37.1741V40.5941L88.3746 41.4838V38.0638ZM111.211 40.0825C109.465 40.22 108.065 39.8502 107.012 38.973C105.983 38.094 105.469 36.8745 105.469 35.3145C105.469 33.3945 106.282 31.9144 107.909 30.8744C109.56 29.8085 111.726 29.1221 114.405 28.8152C115.267 28.7234 116.008 28.581 116.63 28.388C117.253 28.1711 117.719 27.9304 118.03 27.6659C118.365 27.3755 118.533 27.0743 118.533 26.7623C118.533 25.8263 118.15 25.1125 117.384 24.6207C116.642 24.1271 115.709 23.9245 114.585 24.013C113.867 24.0695 113.161 24.2331 112.467 24.5037C111.797 24.7484 111.235 25.1047 110.781 25.5724C110.35 26.0383 110.135 26.6073 110.135 27.2793V28.2153L106.869 28.4723V21.2363L110.063 20.9849V23.1089C110.398 22.7706 110.793 22.4755 111.247 22.2237C111.797 21.8924 112.396 21.6293 113.042 21.4345C113.712 21.2138 114.405 21.0752 115.123 21.0187C117.3 20.8473 119.023 21.3477 120.291 22.5199C121.559 23.6921 122.193 25.3702 122.193 27.5542V35.4022L124.741 35.2017V38.6217L118.82 39.0877V35.9197C118.126 37.0544 117.085 38.0003 115.697 38.7575C114.334 39.5128 112.838 39.9545 111.211 40.0825ZM112.36 36.8962C113.508 36.8058 114.573 36.47 115.554 35.8888C116.559 35.2817 117.348 34.5356 117.922 33.6504C118.497 32.7652 118.784 31.8426 118.784 30.8826V30.0906C118.473 30.379 118.006 30.6198 117.384 30.8127C116.762 31.0057 115.925 31.1916 114.872 31.3704C112.886 31.6707 111.427 32.0856 110.493 32.615C109.56 33.1445 109.094 33.8652 109.094 34.7772C109.094 35.5452 109.381 36.1106 109.955 36.4734C110.529 36.8362 111.331 36.9771 112.36 36.8962ZM126.1 35.0947L129.079 34.8603V23.7003L126.1 23.9347V20.5147L137.19 19.642C139.152 19.4876 140.695 19.7861 141.82 20.5376C142.944 21.2651 143.507 22.3608 143.507 23.8248C143.507 24.7848 143.255 25.6326 142.753 26.3682C142.25 27.0797 141.533 27.6522 140.6 28.0856V28.3736C141.748 28.6192 142.621 29.0785 143.219 29.7514C143.842 30.4225 144.153 31.286 144.153 32.342C144.153 33.83 143.578 35.0392 142.43 35.9696C141.281 36.9 139.69 37.4452 137.657 37.6052L126.1 38.5147V35.0947ZM137.621 34.3681C138.53 34.2965 139.236 34.061 139.738 33.6614C140.241 33.2379 140.492 32.6901 140.492 32.0181C140.492 31.3941 140.229 30.9108 139.702 30.5682C139.176 30.2257 138.458 30.0902 137.549 30.1617L132.489 30.56V34.772L137.621 34.3681ZM136.867 27.0834C137.752 27.0137 138.446 26.7791 138.949 26.3796C139.475 25.9541 139.738 25.4174 139.738 24.7694C139.738 24.1214 139.499 23.6363 139.02 23.3139C138.542 22.9676 137.86 22.8292 136.975 22.8989L132.489 23.252V27.428L136.867 27.0834ZM146.183 33.5142L149.162 33.2798V14.9198L146.183 15.1542V11.7342L152.571 11.2315V25.8115L155.622 25.5714L159.031 21.343L156.806 21.5182V18.0982L165.599 17.4061V20.8261L163.015 21.0295L158.457 26.7162L163.481 32.1528L166.64 31.9042V35.3242L156.698 36.1066V32.6866L159.031 32.503L155.478 28.8227L152.571 29.0515V33.0115L154.904 32.8279V36.2479L146.183 36.9342V33.5142ZM173.947 35.1451C172.2 35.2826 170.801 34.9128 169.748 34.0356C168.719 33.1566 168.205 31.9371 168.205 30.3771C168.205 28.4571 169.018 26.977 170.645 25.937C172.296 24.8711 174.461 24.1847 177.141 23.8778C178.002 23.786 178.744 23.6436 179.366 23.4506C179.988 23.2337 180.455 22.993 180.766 22.7285C181.101 22.4381 181.268 22.1369 181.268 21.8249C181.268 20.8889 180.885 20.1751 180.12 19.6833C179.378 19.1897 178.445 18.9871 177.321 19.0756C176.603 19.1321 175.897 19.2957 175.203 19.5663C174.533 19.811 173.971 20.1673 173.516 20.635C173.086 21.1009 172.87 21.6699 172.87 22.3419V23.2779L169.604 23.5349V16.2989L172.798 16.0475V18.1715C173.133 17.8332 173.528 17.5381 173.983 17.2863C174.533 16.955 175.131 16.6919 175.777 16.4971C176.447 16.2764 177.141 16.1378 177.859 16.0813C180.036 15.9099 181.759 16.4103 183.027 17.5825C184.295 18.7547 184.929 20.4328 184.929 22.6168V30.4648L187.477 30.2643V33.6843L181.555 34.1503V30.9823C180.862 32.1169 179.821 33.0629 178.433 33.8201C177.069 34.5754 175.574 35.0171 173.947 35.1451ZM175.095 31.9588C176.244 31.8684 177.309 31.5326 178.29 30.9514C179.294 30.3443 180.084 29.5981 180.658 28.713C181.232 27.8278 181.52 26.9052 181.52 25.9452V25.1532C181.208 25.4416 180.742 25.6824 180.12 25.8753C179.498 26.0683 178.66 26.2542 177.608 26.433C175.622 26.7333 174.162 27.1482 173.229 27.6776C172.296 28.2071 171.829 28.9278 171.829 29.8398C171.829 30.6078 172.117 31.1732 172.691 31.536C173.265 31.8988 174.067 32.0397 175.095 31.9588ZM212.738 30.2922C212.284 30.736 211.65 31.1699 210.836 31.5939C210.334 31.8254 209.783 32.0128 209.185 32.1558C208.587 32.3229 207.965 32.4319 207.319 32.4827C205.62 32.6164 204.089 32.3649 202.725 31.7282C201.385 31.0657 200.321 30.0695 199.531 28.7396C198.741 27.4098 198.347 25.8208 198.347 23.9728C198.347 22.1248 198.753 20.4488 199.567 18.9448C200.38 17.4408 201.493 16.2372 202.905 15.3341C204.316 14.407 205.895 13.8747 207.642 13.7373C209.412 13.5979 210.992 13.8697 212.379 14.5524C213.767 15.2352 214.844 16.2545 215.609 17.6102C216.399 18.9641 216.794 20.553 216.794 22.377C216.794 22.641 216.782 22.906 216.758 23.1719C216.758 23.4359 216.746 23.7008 216.722 23.9667L201.9 25.1332C202.091 26.0301 202.45 26.8179 202.976 27.4965C203.527 28.1492 204.209 28.6355 205.022 28.9555C205.836 29.2754 206.745 29.3959 207.75 29.3168C208.491 29.2584 209.209 29.0699 209.903 28.7513C210.621 28.4068 211.195 28.0137 211.626 27.5718C212.056 27.1299 212.272 26.7289 212.272 26.3689V25.8649L215.932 25.5768V31.8408L212.738 32.0922V30.2922ZM213.133 21.1531C212.966 20.2303 212.619 19.4416 212.092 18.787C211.59 18.1066 210.944 17.6054 210.154 17.2836C209.365 16.9617 208.491 16.8384 207.534 16.9138C206.601 16.9872 205.74 17.259 204.95 17.7291C204.161 18.1753 203.503 18.779 202.976 19.5405C202.45 20.3019 202.103 21.1332 201.936 22.0344L213.133 21.1531ZM218.758 27.8025L221.701 27.5708C222.107 25.7868 222.442 24.1165 222.706 22.5598C222.969 21.003 223.16 19.38 223.28 17.6906C223.28 17.5706 223.28 17.4626 223.28 17.3666C223.304 17.2447 223.316 17.1237 223.316 17.0037C223.34 16.8819 223.352 16.7609 223.352 16.6409C223.352 16.5209 223.364 16.4 223.387 16.2781L220.409 16.5125V13.0925L239.466 11.5927V15.0127L236.487 15.2471V26.4071L239.681 26.1558V33.8958L236.272 34.1641V29.9161C236.272 29.8921 236.26 29.881 236.236 29.8829C236.236 29.8829 236.236 29.8709 236.236 29.8469C236.236 29.8469 236.224 29.8478 236.2 29.8497L222.275 30.9456C222.251 30.9475 222.239 30.9485 222.239 30.9485C222.239 30.9725 222.227 30.9854 222.203 30.9873C222.203 30.9873 222.203 30.9993 222.203 31.0233V35.2713L218.758 35.5425V27.8025ZM233.077 26.8555V15.4075L226.582 15.9187C226.438 17.97 226.223 19.9309 225.936 21.8015C225.648 23.6481 225.29 25.5484 224.859 27.5023L233.077 26.8555ZM240.917 26.0585L243.896 25.824V14.664L240.917 14.8985V11.4785L250.966 10.6876V14.1076L247.306 14.3957V17.8157L251.002 17.5248C253.203 17.3515 254.926 17.72 256.17 18.63C257.438 19.5142 258.072 20.8203 258.072 22.5483C258.072 24.2763 257.426 25.6952 256.134 26.8049C254.866 27.8887 253.155 28.5153 251.002 28.6848L240.917 29.4785V26.0585ZM251.146 25.4335C252.151 25.3544 252.94 25.0642 253.514 24.5631C254.112 24.06 254.412 23.4124 254.412 22.6204C254.412 21.8524 254.112 21.264 253.514 20.855C252.94 20.4202 252.151 20.2424 251.146 20.3215L247.306 20.6237V25.7357L251.146 25.4335ZM258.718 24.6575L262.056 24.3948V13.2348L258.718 13.4975V10.0775L265.465 9.54648V24.1265L268.767 23.8666V27.2866L258.718 28.0775V24.6575ZM271.509 9.64681C271.844 9.18845 272.143 8.67291 272.407 8.1002C272.67 7.52749 272.861 6.98442 272.981 6.47101C272.981 6.47101 272.969 6.47195 272.945 6.47383C272.945 6.47383 272.933 6.47477 272.909 6.47666C272.263 6.3595 271.761 6.08704 271.402 5.65929C271.043 5.20753 270.863 4.68166 270.863 4.08165C270.863 3.62565 270.971 3.18518 271.186 2.76023C271.402 2.31129 271.713 1.93881 272.119 1.6428C272.526 1.34679 272.993 1.17807 273.519 1.13664C274.285 1.07638 274.931 1.27754 275.457 1.74011C276.007 2.17681 276.283 2.82715 276.283 3.69115C276.283 4.57915 276.019 5.60786 275.493 6.77729C274.991 7.94483 274.392 8.84391 273.699 9.47452L271.509 9.64681ZM278.795 9.07343C279.13 8.61507 279.429 8.09953 279.692 7.52682C279.955 6.95411 280.147 6.41104 280.266 5.89763C280.266 5.89763 280.254 5.89857 280.23 5.90045C280.23 5.90045 280.218 5.9014 280.194 5.90328C279.548 5.78612 279.046 5.51366 278.687 5.08591C278.328 4.63415 278.149 4.10828 278.149 3.50828C278.149 3.05228 278.256 2.6118 278.472 2.18685C278.687 1.73791 278.998 1.36543 279.405 1.06942C279.812 0.773406 280.278 0.604688 280.805 0.563261C281.57 0.503005 282.216 0.704163 282.743 1.16674C283.293 1.60343 283.568 2.25377 283.568 3.11777C283.568 4.00577 283.305 5.03448 282.778 6.20391C282.276 7.37146 281.678 8.27053 280.984 8.90114L278.795 9.07343Z" fill="#FF7A00"/>
</svg>
